<svg xmlns="http://www.w3.org/2000/svg" viewBox="0 0 382.43 412.302"><path fill="#f7df1e" d="M187.1 8.02c1.48-2.66 2.21-5.8 4.37-8.02 6.3 13.2 12.45 26.47 18.43 39.82 6.53 13.58 12.83 27.26 19 41 4.55 9.24 8.83 18.6 13 28 12.84 27.26 25.5 54.59 38 82 4.54 9.24 8.83 18.59 13 28 2.11 4.28 4.24 8.56 6 13 4.55 9.24 8.83 18.6 13 28.01 6.53 13.57 12.83 27.25 19 40.99 6.53 13.58 12.84 27.26 19 41.01 8.29 17.08 15.93 34.46 24.13 51.59 2.53 6.41 6.12 12.35 8.4 18.86-127.47.03-254.95.03-382.43 0 6.13-14.32 12.87-28.38 19.54-42.46 4.17-9.41 8.46-18.77 13-28 6.17-13.74 12.48-27.42 19-41 6.17-13.74 12.47-27.42 19-41 4.17-9.4 8.45-18.76 13-27.99 1.76-4.45 3.89-8.72 6-13 4.17-9.41 8.45-18.77 13-28.01 6.17-13.74 12.47-27.42 19-40.99 6.17-13.75 12.48-27.43 19-41.02 4.18-9.4 8.45-18.76 13-27.99 6.17-13.74 12.47-27.42 19-41 4.63-10.7 9.82-21.15 14.56-31.8m3.6 144.3c.01 47.99.01 95.98.08 143.97-.04 8.12.38 16.35-1.44 24.33-1.25 6.07-3.74 12.19-8.48 16.37-5.43 5.11-13.37 6.35-20.54 5.66-9.62-.96-18.21-7.7-22.05-16.46-2.81-7.19-2.45-15.62 1.17-22.45 4.51-8.63 13.86-14.96 23.78-14.46 6.32.1 12.2 3.02 17 6.97-.02-25.87.05-51.74-.04-77.6-7.33-.4-14.66-1.26-22.02-.89-11.91.24-23.78 2.88-34.64 7.79-27.95 13.08-50.21 39.25-56.26 69.79-4.2 22.78-1.39 47.32 10.4 67.5 7.19 12.31 17.06 23.04 28.68 31.3 15.01 10.91 33.38 16.82 51.86 17.67 35.09 2.34 71.49-15.69 89.03-46.53 10.16-17.48 13.65-38 13.71-58 0-51.66.08-103.32.13-154.98-23.46 0-46.91-.02-70.37.02z"/><path fill="#000000" d="M190.7 152.32c23.46-.04 46.91-.02 70.37-.02-.05 51.66-.13 103.32-.13 154.98-.06 20-3.55 40.52-13.71 58-17.54 30.84-53.94 48.87-89.03 46.53-18.48-.85-36.85-6.76-51.86-17.67-11.62-8.26-21.49-18.99-28.68-31.3-11.79-20.18-14.6-44.72-10.4-67.5 6.05-30.54 28.31-56.71 56.26-69.79 10.86-4.91 22.73-7.55 34.64-7.79 7.36-.37 14.69.49 22.02.89.09 25.86.02 51.73.04 77.6-4.8-3.95-10.68-6.87-17-6.97-9.92-.5-19.27 5.83-23.78 14.46-3.62 6.83-3.98 15.26-1.17 22.45 3.84 8.76 12.43 15.5 22.05 16.46 7.17.69 15.11-.55 20.54-5.66 4.74-4.18 7.23-10.3 8.48-16.37 1.82-7.98 1.4-16.21 1.44-24.33-.07-47.99-.07-95.98-.08-143.97z"/></svg>