<svg xmlns="http://www.w3.org/2000/svg" viewBox="0 0 809.23 412.611"><path fill="#f7df1e" d="M190.95 0c2.2 2.21 2.9 5.39 4.4 8.05 4.73 10.64 9.92 21.07 14.54 31.76 6.53 13.58 12.83 27.26 19 41 4.55 9.24 8.82 18.6 13 28 6.52 13.59 12.83 27.26 19 41.01 6.53 13.58 12.83 27.25 19.01 40.99 5.07 10.26 9.7 20.72 14.48 31.11-7.2.01-14.4 0-21.6.01-.01 27.46-.03 54.92.03 82.39.06 11.98-.29 24.03 1.36 35.94 1.76 13.52 5.99 26.94 13.79 38.23 9.08 12.71 21.69 23.1 36.37 28.62 6.94 2.75 14.32 4.14 21.71 5.08-115.35.22-230.7.05-346.04.09 6.11-14.33 12.86-28.38 19.53-42.46 4.17-9.41 8.45-18.77 13-28.01 6.16-13.74 12.47-27.42 19-41 6.17-13.74 12.48-27.42 19-41 4.17-9.4 8.45-18.76 13-28 1.76-4.44 3.89-8.71 6-13 4.17-9.4 8.45-18.76 12.99-27.99 6.17-13.74 12.48-27.42 19.01-41.01 6.17-13.73 12.47-27.41 18.99-40.99 4.18-9.41 8.46-18.77 13-28.01 6.18-13.73 12.48-27.42 19.01-40.99C178.5 26.47 184.66 13.21 190.95 0m-.27 152.32c.01 51.65.06 103.31.07 154.97-.3 10.43-1.79 22.22-9.89 29.69-5.44 5.12-13.4 6.35-20.58 5.66-9.34-.94-17.67-7.34-21.69-15.71-3.39-7.76-2.83-17.18 1.54-24.44 4.7-7.98 13.62-13.68 23.05-13.22 6.33.09 12.23 3.01 17.03 6.97-.02-25.87.05-51.74-.04-77.61-7.62-.42-15.23-1.29-22.87-.85-18.02.42-35.72 6.72-50.22 17.37-14.43 10.61-26.54 24.72-33.82 41.16-8.19 18.41-9.58 39.34-5.95 59.02 7.22 36.69 38.27 67.13 74.83 74.42 22.4 4.74 46.49 2.09 66.79-8.71 15.71-7.68 29.13-20.03 37.92-35.16 10.44-17.58 14.02-38.36 14.08-58.57 0-51.68.08-103.35.13-155.02-23.46.01-46.92-.03-70.38.03zM350.34 342.5c-6.69-2.94-7.65-11.02-7.36-17.45.08.72.26 2.14.34 2.86 2.71 4.68 4.66 9.74 7.02 14.59zm15.14 69.71c5.22-.7 10.42-1.6 15.47-3.13.65.98 1.13 2.05 1.45 3.19-5.64-.01-11.28.11-16.92-.06z"/><path fill="#000000" d="M190.68 152.32c23.46-.06 46.92-.02 70.38-.03-.05 51.67-.13 103.34-.13 155.02-.06 20.21-3.64 40.99-14.08 58.57-8.79 15.13-22.21 27.48-37.92 35.16-20.3 10.8-44.39 13.45-66.79 8.71-36.56-7.29-67.61-37.73-74.83-74.42-3.63-19.68-2.24-40.61 5.95-59.02 7.28-16.44 19.39-30.55 33.82-41.16 14.5-10.65 32.2-16.95 50.22-17.37 7.64-.44 15.25.43 22.87.85.09 25.87.02 51.74.04 77.61-4.8-3.96-10.7-6.88-17.03-6.97-9.43-.46-18.35 5.24-23.05 13.22-4.37 7.26-4.93 16.68-1.54 24.44 4.02 8.37 12.35 14.77 21.69 15.71 7.18.69 15.14-.54 20.58-5.66 8.1-7.47 9.59-19.26 9.89-29.69-.01-51.66-.06-103.32-.07-154.97zm292.33 75.87c16.83-11.44 38.78-14.4 58.25-8.81 14.16 3.99 26.4 12.91 36.54 23.35 13.15-11.92 28.45-22.78 46.43-25.4 16.21-2.11 33.31.96 47.37 9.47 13.45 8.28 24.27 21.15 29.02 36.33 6.39 18.71 5.14 38.73 5.29 58.18.03 28.67.1 57.34.08 86.01-23.42 0-46.84.02-70.26-.01.06-30.66.08-61.32.06-91.98-.06-6.73.31-13.52-.9-20.17-.58-3.04-1.75-6.42-4.63-7.98-4.39-2.41-10.74-1.74-13.73 2.56-3.56 5.09-3.63 11.64-3.84 17.61.04 33.31.07 66.61.09 99.92-23.43.13-46.86.02-70.29.05.05-33.32.14-66.65.1-99.97-.1-5.44-.07-11.09-2.17-16.2-2.64-6.32-12.22-7.06-16.57-2.21-3.98 5.18-4.2 12.07-4.29 18.34.05 33.34.07 66.69.05 100.03-23.45.03-46.9.01-70.34.01.02-31.35.09-62.7.13-94.05.21-14.81-1.16-29.99 3.3-44.36 4.88-16.61 16.14-30.97 30.31-40.72zm-210.23-6.26c7.2-.01 14.4 0 21.6-.01 16.25 0 32.5.02 48.75-.01-.06 34.38-.12 68.76-.15 103.14-.29 6.43.67 14.51 7.36 17.45 4.9 1.56 10.98 1.5 14.95-2.18 3.74-3.62 4.05-9.18 4.1-14.07-.04-34.77-.11-69.55-.13-104.33 23.45.02 46.89-.02 70.34.02-.04 30.13-.06 60.26-.04 90.39-.05 9.65.3 19.37-1.19 28.94-4.44 30.92-27.5 58.53-57.42 67.81-5.05 1.53-10.25 2.43-15.47 3.13-6.47.6-12.98.47-19.44-.02-7.39-.94-14.77-2.33-21.71-5.08-14.68-5.52-27.29-15.91-36.37-28.62-7.8-11.29-12.03-24.71-13.79-38.23-1.65-11.91-1.3-23.96-1.36-35.94-.06-27.47-.04-54.93-.03-82.39zm508.25 132.11c2.93-7.12 9.46-13.1 17.28-14.05 3.61-.59 7.25.05 10.8.79.22 6.16.02 12.33.12 18.49-4.03-2.16-9.67 1.19-8.22 5.99 2.84 7.06 8.08 13.81 6.65 21.91-1.15 14.66-18.78 24.23-31.82 17.63.04-6.2-.02-12.4-.01-18.59 2.9 1.9 7.43 2.67 9.81-.46 2.11-2.74-.18-5.89-1.45-8.42-4.02-6.92-6.04-15.58-3.16-23.29zm-31.82-12.75c6.34 0 12.68-.01 19.03.01-.04 14.67.08 29.34-.06 44.01 0 8.17-4.34 16.76-12.1 20.05-4.15 1.95-8.87 1.68-13.21.64-.15-6.14.01-12.29-.15-18.43 1.48.05 3.37.93 4.67-.25 1.76-1.45 1.7-3.94 1.8-6 .03-13.34-.01-26.69.02-40.03zm-27.53 43.61c7.61-2.97 16.29 4.49 14.67 12.44-1.01 8.13-11.92 12.09-18.08 6.87-6.73-4.99-4.53-16.84 3.41-19.31z"/></svg>